<?xml version="1.0" encoding="utf-8"?>
<!-- Generator: Adobe Illustrator 28.0.0, SVG Export Plug-In . SVG Version: 6.00 Build 0)  -->
<svg version="1.1" id="Layer_1" xmlns="http://www.w3.org/2000/svg" xmlns:xlink="http://www.w3.org/1999/xlink" x="0px" y="0px"
	 viewBox="0 0 136.9 53.3" style="enable-background:new 0 0 136.9 53.3;" xml:space="preserve">
<style type="text/css">
	.st0{fill:#1969E2;}
</style>
<g>
	<g>
		<path class="st0" d="M4.9,42.4V7.5h23.8v6.9H13.4v7.2h13.9v6.9H13.4v14H4.9z"/>
		<path class="st0" d="M33,42.4V16.2h8.1V21h0.3c0.5-1.7,1.3-3,2.3-3.9c1.1-0.8,2.3-1.3,3.8-1.3c0.4,0,0.8,0,1.2,0.1
			c0.4,0.1,0.8,0.1,1.1,0.2v7.2c-0.4-0.1-0.9-0.2-1.6-0.3s-1.2-0.1-1.7-0.1c-1,0-1.9,0.2-2.7,0.7c-0.8,0.4-1.4,1-1.9,1.8
			s-0.7,1.7-0.7,2.7v14.2H33z"/>
		<path class="st0" d="M57.4,13.1c-1.2,0-2.2-0.4-3-1.2c-0.8-0.8-1.3-1.7-1.3-2.8c0-1.1,0.4-2,1.3-2.8c0.8-0.8,1.8-1.2,3-1.2
			c1.2,0,2.2,0.4,3,1.2s1.3,1.7,1.3,2.8c0,1.1-0.4,2-1.3,2.8S58.6,13.1,57.4,13.1z M53.2,42.4V16.2h8.3v26.2H53.2z"/>
		<path class="st0" d="M93,18.4c-0.3-1.2-0.8-2.2-1.4-3.3s-1.4-1.9-2.3-2.7c-0.9-0.8-1.9-1.4-3.1-1.8C85,10.2,83.7,10,82.2,10
			c-2.3,0-4.3,0.6-6.1,1.8c-1.8,1.2-3.2,2.9-4.3,5.1c-1,2.2-1.6,4.9-1.6,8c0,3.1,0.5,5.8,1.6,8c1,2.2,2.5,3.9,4.3,5.1
			c1.8,1.2,3.9,1.8,6.3,1.8c2.1,0,4-0.5,5.7-1.4c1.6-1,2.9-2.3,3.9-4.1c0.9-1.8,1.4-3.9,1.4-6.3l1,0.3H83.2v-2.9h13.3v2.9
			c0,3-0.6,5.6-1.8,7.7s-2.9,3.8-5,5c-2.1,1.2-4.5,1.8-7.2,1.8c-3,0-5.7-0.7-8-2.2s-4.1-3.6-5.3-6.2s-1.9-5.8-1.9-9.5
			c0-2.7,0.4-5.2,1.1-7.4c0.7-2.2,1.8-4.1,3.1-5.7c1.3-1.6,2.9-2.8,4.7-3.6C78,7.4,80,7,82.2,7c1.9,0,3.7,0.3,5.2,0.9
			c1.6,0.6,3,1.4,4.2,2.5c1.2,1.1,2.2,2.3,3,3.6c0.8,1.4,1.3,2.8,1.6,4.4H93z"/>
		<path class="st0" d="M114,42.9c-2.3,0-4.3-0.6-6-1.7c-1.7-1.1-3.1-2.7-4.1-4.8c-1-2-1.5-4.4-1.5-7c0-2.7,0.5-5,1.5-7.1
			c1-2,2.3-3.6,4.1-4.8s3.7-1.7,6-1.7s4.3,0.6,6,1.7c1.7,1.1,3.1,2.7,4.1,4.8c1,2,1.5,4.4,1.5,7.1c0,2.7-0.5,5-1.5,7
			s-2.3,3.6-4.1,4.8C118.2,42.3,116.2,42.9,114,42.9z M114,40.1c1.8,0,3.4-0.5,4.6-1.5c1.3-1,2.2-2.3,2.9-3.9c0.7-1.6,1-3.4,1-5.4
			c0-2-0.3-3.8-1-5.4c-0.7-1.6-1.6-2.9-2.9-3.9c-1.3-1-2.8-1.5-4.6-1.5c-1.8,0-3.3,0.5-4.6,1.5s-2.2,2.3-2.9,3.9
			c-0.7,1.6-1,3.4-1,5.4c0,2,0.3,3.7,1,5.4c0.7,1.6,1.6,2.9,2.9,3.9S112.1,40.1,114,40.1z"/>
	</g>
</g>
</svg>
